<svg xmlns="http://www.w3.org/2000/svg" xmlns:xlink="http://www.w3.org/1999/xlink" width="300" zoomAndPan="magnify" viewBox="0 0 224.87999 74.999997" height="100" preserveAspectRatio="xMidYMid meet" version="1.0"><defs><g/><clipPath id="3203664b7d"><path d="M 3.746094 3.914062 L 65.214844 3.914062 L 65.214844 70.628906 L 3.746094 70.628906 Z M 3.746094 3.914062 " clip-rule="nonzero"/></clipPath></defs><g clip-path="url(#3203664b7d)"><path fill="#ffffff" d="M 65.214844 42.949219 L 65.214844 31.589844 L 42.585938 31.589844 L 42.585938 42.949219 Z M 3.746094 30.171875 L 3.746094 26.664062 L 7.246094 26.664062 L 7.246094 30.171875 Z M 26.378906 7.453125 L 26.378906 3.941406 L 29.875 3.941406 L 29.875 7.453125 Z M 33.402344 11.007812 L 33.402344 18.105469 L 40.46875 18.105469 L 40.46875 11.007812 Z M 15.0625 18.8125 L 15.0625 15.300781 L 18.558594 15.300781 L 18.558594 18.8125 Z M 22.101562 22.367188 L 22.101562 29.464844 L 29.167969 29.464844 L 29.167969 22.367188 Z M 53.914062 31.589844 L 53.914062 54.3125 L 42.601562 54.3125 L 42.601562 42.949219 L 31.285156 42.949219 L 31.285156 31.589844 L 42.601562 31.589844 L 42.601562 20.230469 L 53.914062 20.230469 Z M 3.746094 47.878906 L 3.746094 44.367188 L 7.246094 44.367188 L 7.246094 47.878906 Z M 10.785156 40.8125 L 17.855469 40.8125 L 17.855469 33.714844 L 10.785156 33.714844 Z M 26.378906 70.597656 L 26.378906 67.085938 L 29.875 67.085938 L 29.875 70.597656 Z M 33.402344 63.53125 L 33.402344 56.433594 L 40.46875 56.433594 L 40.46875 63.53125 Z M 15.0625 59.238281 L 15.0625 55.726562 L 18.558594 55.726562 L 18.558594 59.238281 Z M 22.101562 52.171875 L 22.101562 45.074219 L 29.167969 45.074219 L 29.167969 52.171875 Z M 22.101562 52.171875 " fill-opacity="1" fill-rule="evenodd"/></g><g fill="#ffffff" fill-opacity="1"><g transform="translate(76.51493, 31.996276)"><g><path d="M 7.507812 -19.050781 L 13.601562 -19.050781 C 14.554688 -19.050781 15.386719 -18.25 15.386719 -17.296875 L 15.386719 -6.648438 C 15.386719 -5.691406 14.554688 -4.894531 13.601562 -4.894531 L 7.507812 -4.894531 Z M 1.722656 -23.941406 L 1.722656 0 L 16.0625 0 C 18.863281 0 21.203125 -2.339844 21.203125 -5.140625 L 21.203125 -18.804688 C 21.203125 -21.601562 18.863281 -23.941406 16.0625 -23.941406 Z M 1.722656 -23.941406 "/></g></g></g><g fill="#ffffff" fill-opacity="1"><g transform="translate(99.410048, 31.996276)"><g><path d="M 1.722656 -23.941406 L 1.722656 0 L 7.507812 0 L 7.507812 -23.941406 Z M 1.722656 -23.941406 "/></g></g></g><g fill="#ffffff" fill-opacity="1"><g transform="translate(108.641953, 31.996276)"><g><path d="M 5.140625 -23.941406 C 3.230469 -23.941406 1.722656 -22.433594 1.722656 -20.527344 L 1.722656 -3.414062 C 1.722656 -1.507812 3.230469 0 5.140625 0 L 17.789062 0 C 19.695312 0 21.203125 -1.507812 21.203125 -3.414062 L 21.203125 -13.324219 L 11.480469 -13.324219 L 11.480469 -8.433594 L 15.386719 -8.433594 L 15.386719 -5.722656 C 15.386719 -5.230469 15.019531 -4.894531 14.527344 -4.894531 L 8.371094 -4.894531 C 7.878906 -4.894531 7.507812 -5.230469 7.507812 -5.722656 L 7.507812 -18.21875 C 7.507812 -18.710938 7.878906 -19.050781 8.371094 -19.050781 L 14.527344 -19.050781 C 15.019531 -19.050781 15.386719 -18.710938 15.386719 -18.21875 L 15.386719 -16.710938 L 21.203125 -16.710938 L 21.203125 -20.527344 C 21.203125 -22.433594 19.695312 -23.941406 17.789062 -23.941406 Z M 5.140625 -23.941406 "/></g></g></g><g fill="#ffffff" fill-opacity="1"><g transform="translate(131.537071, 31.996276)"><g><path d="M 1.722656 -23.941406 L 1.722656 0 L 7.507812 0 L 7.507812 -23.941406 Z M 1.722656 -23.941406 "/></g></g></g><g fill="#ffffff" fill-opacity="1"><g transform="translate(140.768976, 31.996276)"><g><path d="M 0.339844 -23.941406 L 0.339844 -19.050781 L 7.140625 -19.050781 L 7.140625 0 L 12.988281 0 L 12.988281 -19.050781 L 19.820312 -19.050781 L 19.820312 -23.941406 Z M 0.339844 -23.941406 "/></g></g></g><g fill="#ffffff" fill-opacity="1"><g transform="translate(160.925302, 31.996276)"><g><path d="M 7.140625 -23.941406 L 0.339844 0 L 6.371094 0 L 7.695312 -4.523438 L 16.28125 -4.523438 L 17.601562 0 L 23.605469 0 L 16.800781 -23.941406 Z M 9.109375 -9.417969 L 11.972656 -19.324219 L 14.863281 -9.417969 Z M 9.109375 -9.417969 "/></g></g></g><g fill="#ffffff" fill-opacity="1"><g transform="translate(184.835931, 31.996276)"><g><path d="M 1.722656 -23.941406 L 1.722656 0 L 19.632812 0 L 19.632812 -4.894531 L 7.507812 -4.894531 L 7.507812 -23.941406 Z M 1.722656 -23.941406 "/></g></g></g><g fill="#ffffff" fill-opacity="1"><g transform="translate(76.51493, 62.673631)"><g><path d="M 2.214844 -23.941406 L 2.214844 0 L 20.003906 0 C 21.910156 0 23.417969 -1.507812 23.417969 -3.414062 L 23.417969 -8.738281 C 23.417969 -10.21875 22.496094 -11.480469 21.203125 -11.972656 C 22.496094 -12.464844 23.417969 -13.695312 23.417969 -15.171875 L 23.417969 -20.527344 C 23.417969 -22.433594 21.910156 -23.941406 20.003906 -23.941406 Z M 5.476562 -10.402344 L 18.125 -10.402344 C 19.234375 -10.402344 20.1875 -9.449219 20.1875 -8.339844 L 20.1875 -4.554688 C 20.1875 -3.753906 19.511719 -3.140625 18.710938 -3.140625 L 5.476562 -3.140625 Z M 5.476562 -13.539062 L 5.476562 -20.804688 L 18.710938 -20.804688 C 19.511719 -20.804688 20.1875 -20.1875 20.1875 -19.386719 L 20.1875 -15.601562 C 20.1875 -14.496094 19.234375 -13.539062 18.125 -13.539062 Z M 5.476562 -13.539062 "/></g></g></g><g fill="#ffffff" fill-opacity="1"><g transform="translate(103.133678, 62.673631)"><g><path d="M 2.214844 -23.941406 L 2.214844 0 L 5.476562 0 L 5.476562 -23.941406 Z M 2.214844 -23.941406 "/></g></g></g><g fill="#ffffff" fill-opacity="1"><g transform="translate(111.750216, 62.673631)"><g><path d="M 1.785156 -23.941406 L 1.785156 -20.804688 L 16.433594 -20.804688 L 1.785156 -1.96875 L 1.785156 0 L 21.632812 0 L 21.632812 -3.140625 L 6.984375 -3.140625 L 21.632812 -21.972656 L 21.632812 -23.941406 Z M 1.785156 -23.941406 "/></g></g></g></svg>