<svg xmlns="http://www.w3.org/2000/svg" xmlns:xlink="http://www.w3.org/1999/xlink" width="1200" zoomAndPan="magnify" viewBox="0 0 900 599.999999" height="800" preserveAspectRatio="xMidYMid meet" version="1.0"><defs><filter x="0%" y="0%" width="100%" height="100%" id="d1ee5c1069"><feColorMatrix values="0 0 0 0 1 0 0 0 0 1 0 0 0 0 1 0 0 0 1 0" color-interpolation-filters="sRGB"/></filter><mask id="c1566c62fa"><g filter="url(#d1ee5c1069)"><rect x="-90" width="1080" fill="#000000" y="-60" height="719.999999" fill-opacity="0.6"/></g></mask><clipPath id="293db0f479"><path d="M 1.316406 1 L 307 1 L 307 83 L 1.316406 83 Z M 1.316406 1 " clip-rule="nonzero"/></clipPath><clipPath id="c942af916f"><path d="M 26 84 L 307 84 L 307 173 L 26 173 Z M 26 84 " clip-rule="nonzero"/></clipPath><clipPath id="d6fdfbbdcf"><path d="M 193 70 L 307 70 L 307 114 L 193 114 Z M 193 70 " clip-rule="nonzero"/></clipPath><clipPath id="41297eabba"><path d="M 279 133 L 307 133 L 307 161 L 279 161 Z M 279 133 " clip-rule="nonzero"/></clipPath><clipPath id="d14def2dc3"><rect x="0" width="307" y="0" height="173"/></clipPath><mask id="a1f00fa85d"><g filter="url(#d1ee5c1069)"><rect x="-90" width="1080" fill="#000000" y="-60" height="719.999999" fill-opacity="0.6"/></g></mask><clipPath id="e881a121a7"><path d="M 0 0 L 136 0 L 136 48 L 0 48 Z M 0 0 " clip-rule="nonzero"/></clipPath><clipPath id="8746961f93"><path d="M 0 49 L 163 49 L 163 163.679688 L 0 163.679688 Z M 0 49 " clip-rule="nonzero"/></clipPath><clipPath id="a3880815ca"><path d="M 5 34 L 199.347656 34 L 199.347656 77 L 5 77 Z M 5 34 " clip-rule="nonzero"/></clipPath><clipPath id="0908d52dc3"><path d="M 116 0 L 169 0 L 169 23 L 116 23 Z M 116 0 " clip-rule="nonzero"/></clipPath><clipPath id="1127cbf614"><rect x="0" width="200" y="0" height="164"/></clipPath></defs><g mask="url(#c1566c62fa)"><g transform="matrix(1, 0, 0, 1, 593, 427)"><g clip-path="url(#d14def2dc3)"><g clip-path="url(#293db0f479)"><path fill="#00ced1" d="M 6.550781 63.085938 C 4.339844 63.085938 2.542969 61.289062 2.542969 59.082031 C 2.542969 56.871094 4.339844 55.074219 6.550781 55.074219 C 8.761719 55.074219 10.554688 56.871094 10.554688 59.082031 C 10.554688 61.289062 8.761719 63.085938 6.550781 63.085938 Z M 11.636719 60.308594 L 108.101562 60.308594 L 130.71875 82.917969 L 159.273438 82.917969 L 188.777344 53.429688 L 276.8125 53.429688 L 320.613281 9.648438 C 322.375 10.648438 324.65625 10.402344 326.15625 8.898438 C 327.964844 7.097656 327.964844 4.171875 326.15625 2.367188 C 324.355469 0.5625 321.425781 0.5625 319.625 2.367188 C 318.121094 3.871094 317.875 6.148438 318.875 7.910156 L 275.792969 50.972656 L 187.757812 50.972656 L 158.257812 80.460938 L 131.738281 80.460938 L 109.121094 57.851562 L 11.636719 57.851562 C 11.078125 55.558594 9.015625 53.847656 6.550781 53.847656 C 3.664062 53.847656 1.3125 56.195312 1.3125 59.082031 C 1.3125 61.964844 3.664062 64.3125 6.550781 64.3125 C 9.015625 64.3125 11.078125 62.601562 11.636719 60.308594 " fill-opacity="1" fill-rule="nonzero"/></g><g clip-path="url(#c942af916f)"><path fill="#00ced1" d="M 346.785156 200.0625 C 345.226562 198.503906 345.226562 195.960938 346.785156 194.398438 C 348.351562 192.835938 350.890625 192.835938 352.453125 194.398438 C 354.015625 195.960938 354.015625 198.503906 352.453125 200.0625 C 350.890625 201.625 348.351562 201.625 346.785156 200.0625 Z M 346.894531 192.769531 L 310.527344 156.421875 L 225.871094 156.421875 L 178.941406 109.515625 L 114.585938 109.515625 L 93.382812 88.324219 L 35.460938 88.324219 C 34.921875 86.367188 33.136719 84.933594 31.011719 84.933594 C 28.460938 84.933594 26.390625 87 26.390625 89.550781 C 26.390625 92.105469 28.460938 94.171875 31.011719 94.171875 C 33.136719 94.171875 34.921875 92.734375 35.460938 90.78125 L 92.367188 90.78125 L 113.566406 111.972656 L 177.925781 111.972656 L 224.855469 158.878906 L 309.511719 158.878906 L 345.15625 194.507812 C 343.925781 196.519531 344.175781 199.191406 345.917969 200.933594 C 347.957031 202.972656 351.28125 202.972656 353.324219 200.933594 C 355.363281 198.890625 355.363281 195.574219 353.324219 193.53125 C 351.582031 191.789062 348.910156 191.539062 346.894531 192.769531 " fill-opacity="1" fill-rule="nonzero"/></g><path fill="#00ced1" d="M 52.597656 107.851562 C 52.597656 110.058594 50.800781 111.855469 48.589844 111.855469 C 46.378906 111.855469 44.582031 110.058594 44.582031 107.851562 C 44.582031 105.640625 46.378906 103.84375 48.589844 103.84375 C 50.800781 103.84375 52.597656 105.640625 52.597656 107.851562 Z M 165.945312 132.585938 C 163.820312 132.585938 162.03125 134.023438 161.492188 135.976562 L 104.332031 135.976562 L 74.960938 106.621094 L 53.671875 106.621094 C 53.117188 104.328125 51.054688 102.613281 48.589844 102.613281 C 45.703125 102.613281 43.351562 104.960938 43.351562 107.851562 C 43.351562 110.734375 45.703125 113.082031 48.589844 113.082031 C 51.054688 113.082031 53.117188 111.371094 53.671875 109.078125 L 73.945312 109.078125 L 103.316406 138.433594 L 161.492188 138.433594 C 162.03125 140.390625 163.820312 141.824219 165.945312 141.824219 C 168.496094 141.824219 170.566406 139.757812 170.566406 137.207031 C 170.566406 134.65625 168.496094 132.585938 165.945312 132.585938 " fill-opacity="1" fill-rule="nonzero"/><g clip-path="url(#d6fdfbbdcf)"><path fill="#00ced1" d="M 387.582031 111.855469 C 385.371094 111.855469 383.578125 110.058594 383.578125 107.851562 C 383.578125 105.640625 385.371094 103.84375 387.582031 103.84375 C 389.792969 103.84375 391.589844 105.640625 391.589844 107.851562 C 391.589844 110.058594 389.792969 111.855469 387.582031 111.855469 Z M 392.820312 107.851562 C 392.820312 104.960938 390.46875 102.613281 387.582031 102.613281 C 385.117188 102.613281 383.054688 104.328125 382.496094 106.621094 L 338 106.621094 L 304.941406 73.578125 L 202.667969 73.578125 C 202.132812 71.625 200.34375 70.1875 198.21875 70.1875 C 195.667969 70.1875 193.597656 72.257812 193.597656 74.808594 C 193.597656 77.359375 195.667969 79.425781 198.21875 79.425781 C 200.34375 79.425781 202.132812 77.992188 202.667969 76.035156 L 303.925781 76.035156 L 336.980469 109.078125 L 382.496094 109.078125 C 383.054688 111.371094 385.117188 113.082031 387.582031 113.082031 C 390.46875 113.082031 392.820312 110.734375 392.820312 107.851562 " fill-opacity="1" fill-rule="nonzero"/></g><path fill="#00ced1" d="M 219.144531 96.925781 C 219.144531 99.132812 217.347656 100.929688 215.140625 100.929688 C 212.929688 100.929688 211.132812 99.132812 211.132812 96.925781 C 211.132812 94.714844 212.929688 92.917969 215.140625 92.917969 C 217.347656 92.917969 219.144531 94.714844 219.144531 96.925781 Z M 303.257812 122.128906 L 276.8125 95.695312 L 220.226562 95.695312 C 219.667969 93.402344 217.601562 91.691406 215.140625 91.691406 C 212.25 91.691406 209.902344 94.039062 209.902344 96.925781 C 209.902344 99.808594 212.25 102.15625 215.140625 102.15625 C 217.601562 102.15625 219.667969 100.445312 220.226562 98.152344 L 275.792969 98.152344 L 297.324219 119.671875 L 253.988281 119.671875 L 242.183594 131.46875 C 240.421875 130.46875 238.140625 130.71875 236.640625 132.21875 C 234.835938 134.023438 234.835938 136.949219 236.640625 138.75 C 238.441406 140.554688 241.371094 140.554688 243.175781 138.75 C 244.679688 137.25 244.921875 134.96875 243.921875 133.207031 L 255.007812 122.128906 L 303.257812 122.128906 " fill-opacity="1" fill-rule="nonzero"/><g clip-path="url(#41297eabba)"><path fill="#00ced1" d="M 288.605469 138.75 C 288.605469 140.960938 286.808594 142.757812 284.597656 142.757812 C 282.386719 142.757812 280.59375 140.960938 280.59375 138.75 C 280.59375 136.542969 282.386719 134.746094 284.597656 134.746094 C 286.808594 134.746094 288.605469 136.542969 288.605469 138.75 Z M 369.882812 151.445312 C 367.753906 151.445312 365.96875 152.882812 365.429688 154.835938 L 339.96875 154.835938 L 322.648438 137.523438 L 289.683594 137.523438 C 289.128906 135.230469 287.0625 133.519531 284.597656 133.519531 C 281.710938 133.519531 279.363281 135.867188 279.363281 138.75 C 279.363281 141.636719 281.710938 143.988281 284.597656 143.988281 C 287.0625 143.988281 289.128906 142.273438 289.683594 139.980469 L 321.628906 139.980469 L 338.953125 157.292969 L 365.429688 157.292969 C 365.96875 159.246094 367.753906 160.6875 369.882812 160.6875 C 372.433594 160.6875 374.503906 158.617188 374.503906 156.066406 C 374.503906 153.515625 372.433594 151.445312 369.882812 151.445312 " fill-opacity="1" fill-rule="nonzero"/></g></g></g></g><g mask="url(#a1f00fa85d)"><g transform="matrix(1, 0, 0, 1, 0, -0.000000000000034788)"><g clip-path="url(#1127cbf614)"><g clip-path="url(#e881a121a7)"><path fill="#00ced1" d="M -177.300781 27.824219 C -179.453125 27.824219 -181.207031 26.074219 -181.207031 23.921875 C -181.207031 21.769531 -179.453125 20.019531 -177.300781 20.019531 C -175.144531 20.019531 -173.394531 21.769531 -173.394531 23.921875 C -173.394531 26.074219 -175.144531 27.824219 -177.300781 27.824219 Z M -172.339844 25.117188 L -78.277344 25.117188 L -56.222656 47.140625 L -28.378906 47.140625 L 0.386719 18.417969 L 86.230469 18.417969 L 128.941406 -24.230469 C 130.660156 -23.253906 132.882812 -23.492188 134.347656 -24.957031 C 136.109375 -26.714844 136.109375 -29.5625 134.347656 -31.320312 C 132.589844 -33.078125 129.734375 -33.078125 127.976562 -31.320312 C 126.511719 -29.859375 126.269531 -27.636719 127.246094 -25.921875 L 85.238281 16.023438 L -0.605469 16.023438 L -29.371094 44.746094 L -55.230469 44.746094 L -77.285156 22.726562 L -172.339844 22.726562 C -172.882812 20.488281 -174.898438 18.824219 -177.300781 18.824219 C -180.113281 18.824219 -182.40625 21.109375 -182.40625 23.921875 C -182.40625 26.734375 -180.113281 29.019531 -177.300781 29.019531 C -174.898438 29.019531 -172.882812 27.351562 -172.339844 25.117188 " fill-opacity="1" fill-rule="nonzero"/></g><path fill="#00ced1" d="M 154.15625 162.640625 L 154.144531 162.625 L 154.15625 162.640625 " fill-opacity="1" fill-rule="nonzero"/><path fill="#00ced1" d="M 153.617188 162.097656 L 153.523438 162.003906 L 153.617188 162.097656 " fill-opacity="1" fill-rule="nonzero"/><g clip-path="url(#8746961f93)"><path fill="#00ced1" d="M 154.464844 161.25 C 152.941406 159.730469 152.941406 157.257812 154.464844 155.734375 C 155.988281 154.210938 158.464844 154.210938 159.992188 155.734375 C 161.511719 157.257812 161.511719 159.730469 159.992188 161.25 C 158.464844 162.773438 155.988281 162.773438 154.464844 161.25 Z M 154.566406 154.148438 L 119.109375 118.742188 L 36.558594 118.742188 L -9.199219 73.050781 L -71.953125 73.050781 L -92.628906 52.40625 L -149.105469 52.40625 C -149.632812 50.503906 -151.375 49.105469 -153.445312 49.105469 C -155.9375 49.105469 -157.953125 51.117188 -157.953125 53.605469 C -157.953125 56.089844 -155.9375 58.101562 -153.445312 58.101562 C -151.375 58.101562 -149.632812 56.703125 -149.105469 54.800781 L -93.621094 54.800781 L -72.945312 75.441406 L -10.195312 75.441406 L 35.566406 121.132812 L 118.117188 121.132812 L 152.875 155.839844 C 151.675781 157.800781 151.917969 160.402344 153.617188 162.097656 C 155.605469 164.085938 158.847656 164.085938 160.835938 162.097656 C 162.828125 160.109375 162.828125 156.878906 160.835938 154.890625 C 159.136719 153.191406 156.53125 152.949219 154.566406 154.148438 " fill-opacity="1" fill-rule="nonzero"/></g><path fill="#00ced1" d="M 153.523438 162.003906 C 153.441406 161.925781 153.367188 161.851562 153.308594 161.792969 C 153.375 161.855469 153.449219 161.929688 153.523438 162.003906 " fill-opacity="1" fill-rule="nonzero"/><path fill="#00ced1" d="M 154.144531 162.625 C 154.074219 162.554688 153.910156 162.394531 153.617188 162.097656 C 153.835938 162.316406 154.050781 162.53125 154.144531 162.625 " fill-opacity="1" fill-rule="nonzero"/><path fill="#00ced1" d="M 154.15625 162.640625 C 154.203125 162.6875 154.199219 162.679688 154.15625 162.640625 " fill-opacity="1" fill-rule="nonzero"/><path fill="#00ced1" d="M 153.066406 161.546875 C 153.109375 161.589844 153.199219 161.679688 153.308594 161.792969 C 153.175781 161.660156 153.101562 161.585938 153.066406 161.546875 " fill-opacity="1" fill-rule="nonzero"/><g clip-path="url(#a3880815ca)"><path fill="#00ced1" d="M 194.242188 75.328125 C 192.089844 75.328125 190.335938 73.578125 190.335938 71.425781 C 190.335938 69.273438 192.089844 67.523438 194.242188 67.523438 C 196.398438 67.523438 198.152344 69.273438 198.152344 71.425781 C 198.152344 73.578125 196.398438 75.328125 194.242188 75.328125 Z M 199.347656 71.425781 C 199.347656 68.613281 197.058594 66.328125 194.242188 66.328125 C 191.839844 66.328125 189.828125 67.996094 189.285156 70.230469 L 145.898438 70.230469 L 113.660156 38.042969 L 13.933594 38.042969 C 13.410156 36.140625 11.667969 34.742188 9.597656 34.742188 C 7.105469 34.742188 5.089844 36.757812 5.089844 39.242188 C 5.089844 41.726562 7.105469 43.742188 9.597656 43.742188 C 11.667969 43.742188 13.410156 42.34375 13.933594 40.4375 L 112.667969 40.4375 L 144.902344 72.625 L 189.285156 72.625 C 189.828125 74.855469 191.839844 76.523438 194.242188 76.523438 C 197.058594 76.523438 199.347656 74.238281 199.347656 71.425781 " fill-opacity="1" fill-rule="nonzero"/></g><path fill="#00ced1" d="M 30 60.785156 C 30 62.9375 28.25 64.6875 26.09375 64.6875 C 23.941406 64.6875 22.1875 62.9375 22.1875 60.785156 C 22.1875 58.632812 23.941406 56.882812 26.09375 56.882812 C 28.25 56.882812 30 58.632812 30 60.785156 Z M 112.019531 85.335938 L 86.230469 59.589844 L 31.054688 59.589844 C 30.511719 57.351562 28.496094 55.6875 26.09375 55.6875 C 23.277344 55.6875 20.988281 57.972656 20.988281 60.785156 C 20.988281 63.59375 23.277344 65.882812 26.09375 65.882812 C 28.496094 65.882812 30.511719 64.214844 31.054688 61.980469 L 85.238281 61.980469 L 106.230469 82.945312 L 63.976562 82.945312 L 52.464844 94.433594 C 50.746094 93.460938 48.523438 93.703125 47.058594 95.164062 C 45.300781 96.921875 45.300781 99.773438 47.058594 101.527344 C 48.816406 103.285156 51.671875 103.285156 53.429688 101.527344 C 54.898438 100.066406 55.136719 97.84375 54.160156 96.128906 L 64.96875 85.335938 L 112.019531 85.335938 " fill-opacity="1" fill-rule="nonzero"/><g clip-path="url(#0908d52dc3)"><path fill="#00ced1" d="M 125.058594 17.496094 C 125.058594 19.648438 123.308594 21.394531 121.152344 21.394531 C 118.996094 21.394531 117.246094 19.648438 117.246094 17.496094 C 117.246094 15.34375 118.996094 13.59375 121.152344 13.59375 C 123.308594 13.59375 125.058594 15.34375 125.058594 17.496094 Z M 126.109375 16.296875 C 125.566406 14.0625 123.554688 12.398438 121.152344 12.398438 C 118.335938 12.398438 116.046875 14.683594 116.046875 17.496094 C 116.046875 20.304688 118.335938 22.59375 121.152344 22.59375 C 123.554688 22.59375 125.566406 20.925781 126.109375 18.691406 L 143.152344 18.691406 L 162.058594 -0.183594 C 163.777344 0.789062 166 0.546875 167.46875 -0.914062 C 169.226562 -2.671875 169.226562 -5.523438 167.46875 -7.277344 C 165.707031 -9.035156 162.851562 -9.035156 161.09375 -7.277344 C 159.628906 -5.8125 159.386719 -3.597656 160.363281 -1.878906 L 142.160156 16.296875 L 126.109375 16.296875 " fill-opacity="1" fill-rule="nonzero"/></g><path fill="#00ced1" d="M 97.730469 101.527344 C 97.730469 103.679688 95.980469 105.429688 93.824219 105.429688 C 91.667969 105.429688 89.917969 103.679688 89.917969 101.527344 C 89.917969 99.378906 91.667969 97.628906 93.824219 97.628906 C 95.980469 97.628906 97.730469 99.378906 97.730469 101.527344 Z M 176.984375 113.894531 C 174.910156 113.894531 173.167969 115.292969 172.644531 117.195312 L 147.816406 117.195312 L 130.925781 100.332031 L 98.78125 100.332031 C 98.242188 98.097656 96.226562 96.429688 93.824219 96.429688 C 91.007812 96.429688 88.71875 98.71875 88.71875 101.527344 C 88.71875 104.339844 91.007812 106.628906 93.824219 106.628906 C 96.226562 106.628906 98.242188 104.960938 98.78125 102.726562 L 129.933594 102.726562 L 146.824219 119.589844 L 172.644531 119.589844 C 173.167969 121.492188 174.910156 122.894531 176.984375 122.894531 C 179.472656 122.894531 181.488281 120.878906 181.488281 118.394531 C 181.488281 115.910156 179.472656 113.894531 176.984375 113.894531 " fill-opacity="1" fill-rule="nonzero"/></g></g></g></svg>