<svg xmlns="http://www.w3.org/2000/svg" xmlns:xlink="http://www.w3.org/1999/xlink" width="1000" zoomAndPan="magnify" viewBox="0 0 750 525.000007" height="700" preserveAspectRatio="xMidYMid meet" version="1.0"><defs><clipPath id="cfbcb62101"><path d="M 16.300781 0 L 709 0 L 709 149 L 16.300781 149 Z M 16.300781 0 " clip-rule="nonzero"/></clipPath><clipPath id="96e1eabba9"><path d="M 154 187 L 733.433594 187 L 733.433594 337 L 154 337 Z M 154 187 " clip-rule="nonzero"/></clipPath></defs><g clip-path="url(#cfbcb62101)"><path fill="#ffffff" d="M 708.089844 148.886719 L 437.652344 148.886719 C 429.960938 129.605469 411.085938 115.949219 389.078125 115.949219 C 367.066406 115.949219 348.195312 129.609375 340.503906 148.886719 L 90.679688 148.886719 C 49.601562 148.886719 16.300781 115.582031 16.300781 74.503906 C 16.300781 33.421875 49.601562 0.121094 90.679688 0.121094 L 471.828125 0.121094 C 573.238281 0.121094 664.980469 58.886719 708.089844 148.886719 Z M 708.089844 148.886719 " fill-opacity="1" fill-rule="nonzero"/></g><g clip-path="url(#96e1eabba9)"><path fill="#ffffff" d="M 733.703125 261.996094 C 733.703125 287.378906 730.101562 312.355469 723.011719 336.378906 L 550.027344 336.378906 C 542.335938 317.101562 523.464844 303.441406 501.453125 303.441406 C 479.445312 303.441406 460.574219 317.101562 452.882812 336.378906 L 229.144531 336.378906 C 188.070312 336.378906 154.773438 303.082031 154.773438 262.007812 C 154.773438 220.933594 188.070312 187.632812 229.144531 187.632812 L 340.503906 187.632812 C 348.195312 206.914062 367.066406 220.570312 389.078125 220.570312 C 411.089844 220.570312 429.960938 206.910156 437.652344 187.632812 L 723.007812 187.632812 C 730.101562 211.660156 733.703125 236.617188 733.703125 261.996094 Z M 733.703125 261.996094 " fill-opacity="1" fill-rule="nonzero"/></g><path fill="#ffffff" d="M 708.050781 375.128906 C 695.265625 401.710938 677.90625 426.261719 657 447.167969 C 607.550781 496.632812 541.792969 523.871094 471.828125 523.871094 L 367.699219 523.871094 C 326.625 523.871094 293.324219 490.574219 293.324219 449.5 C 293.324219 408.425781 326.621094 375.128906 367.699219 375.128906 L 452.882812 375.128906 C 460.574219 394.410156 479.445312 408.066406 501.453125 408.066406 C 523.464844 408.066406 542.335938 394.40625 550.027344 375.128906 Z M 708.050781 375.128906 " fill-opacity="1" fill-rule="nonzero"/></svg>