<svg xmlns="http://www.w3.org/2000/svg" xmlns:xlink="http://www.w3.org/1999/xlink" width="300" zoomAndPan="magnify" viewBox="0 0 224.87999 74.999997" height="100" preserveAspectRatio="xMidYMid meet" version="1.0"><defs><g/><clipPath id="cc6a466caf"><path d="M 7.496094 7.515625 L 67.464844 7.515625 L 67.464844 67.484375 L 7.496094 67.484375 Z M 7.496094 7.515625 " clip-rule="nonzero"/></clipPath></defs><g clip-path="url(#cc6a466caf)"><path fill="#00ff00" d="M 22.488281 22.507812 L 22.488281 7.515625 L 67.464844 7.515625 L 67.464844 52.492188 L 52.472656 52.492188 L 52.472656 67.484375 L 37.480469 67.484375 L 37.480469 52.492188 L 22.488281 52.492188 L 22.488281 37.5 L 7.496094 37.5 L 7.496094 22.507812 Z M 22.488281 37.5 L 37.480469 37.5 L 37.480469 52.492188 L 52.472656 52.492188 L 52.472656 22.507812 L 22.488281 22.507812 Z M 22.488281 37.5 " fill-opacity="1" fill-rule="evenodd"/></g><g fill="#ffffff" fill-opacity="1"><g transform="translate(76.18862, 52.342075)"><g><path d="M 11.367188 -28.832031 L 20.589844 -28.832031 C 22.03125 -28.832031 23.289062 -27.621094 23.289062 -26.179688 L 23.289062 -10.0625 C 23.289062 -8.617188 22.03125 -7.40625 20.589844 -7.40625 L 11.367188 -7.40625 Z M 2.609375 -36.238281 L 2.609375 0 L 24.316406 0 C 28.554688 0 32.09375 -3.539062 32.09375 -7.777344 L 32.09375 -28.460938 C 32.09375 -32.699219 28.554688 -36.238281 24.316406 -36.238281 Z M 2.609375 -36.238281 "/></g></g></g><g fill="#ffffff" fill-opacity="1"><g transform="translate(113.165194, 52.342075)"><g><path d="M 2.609375 -36.238281 L 2.609375 0 L 11.367188 0 L 11.367188 -36.238281 Z M 2.609375 -36.238281 "/></g></g></g><g fill="#ffffff" fill-opacity="1"><g transform="translate(129.465192, 52.342075)"><g><path d="M 7.777344 -36.238281 C 4.890625 -36.238281 2.609375 -33.957031 2.609375 -31.070312 L 2.609375 -5.171875 C 2.609375 -2.28125 4.890625 0 7.777344 0 L 26.921875 0 C 29.8125 0 32.09375 -2.28125 32.09375 -5.171875 L 32.09375 -20.167969 L 17.375 -20.167969 L 17.375 -12.761719 L 23.289062 -12.761719 L 23.289062 -8.664062 C 23.289062 -7.917969 22.730469 -7.40625 21.984375 -7.40625 L 12.667969 -7.40625 C 11.925781 -7.40625 11.367188 -7.917969 11.367188 -8.664062 L 11.367188 -27.574219 C 11.367188 -28.320312 11.925781 -28.832031 12.667969 -28.832031 L 21.984375 -28.832031 C 22.730469 -28.832031 23.289062 -28.320312 23.289062 -27.574219 L 23.289062 -25.292969 L 32.09375 -25.292969 L 32.09375 -31.070312 C 32.09375 -33.957031 29.8125 -36.238281 26.921875 -36.238281 Z M 7.777344 -36.238281 "/></g></g></g><g fill="#ffffff" fill-opacity="1"><g transform="translate(166.441763, 52.342075)"><g><path d="M 2.609375 -36.238281 L 2.609375 0 L 11.367188 0 L 11.367188 -36.238281 Z M 2.609375 -36.238281 "/></g></g></g><g fill="#ffffff" fill-opacity="1"><g transform="translate(182.741764, 52.342075)"><g><path d="M 2.328125 -36.238281 L 2.328125 -28.832031 L 17.605469 -28.832031 L 2.328125 -4.9375 L 2.328125 0 L 29.765625 0 L 29.765625 -7.40625 L 14.441406 -7.40625 L 29.765625 -31.300781 L 29.765625 -36.238281 Z M 2.328125 -36.238281 "/></g></g></g></svg>